<svg width="100%" height="100%" viewBox="0 0 509 288" version="1.1" xmlns="http://www.w3.org/2000/svg" xml:space="preserve" style="fill-rule:evenodd;clip-rule:evenodd;stroke-linejoin:round;stroke-miterlimit:2;">
    <g transform="matrix(1.33333,0,0,1.33333,-586.97,-379.689)">
        <g transform="matrix(5.08475,0,0,5.08475,-2.20801,2.20802)">
            <g transform="matrix(1,0,0,1,-9.40628,36.3633)">
                <path fill="currentColor" d="M164.774,56.83L169.014,56.83C170.317,56.83 171.375,57.888 171.375,59.191C171.375,60.494 170.317,61.552 169.014,61.552L98.78,61.552C97.477,61.552 96.419,60.494 96.419,59.191C96.419,57.888 97.477,56.83 98.78,56.83L103.02,56.83L103.02,24.9C103.02,21.758 105.571,19.207 108.713,19.207L159.08,19.207C162.223,19.207 164.774,21.758 164.774,24.9L164.774,56.83ZM107.347,56.83L160.447,56.83L160.447,25.246C160.447,24.518 159.856,23.927 159.128,23.927L108.666,23.927C107.938,23.927 107.347,24.518 107.347,25.246L107.347,56.83ZM139.258,35.832L135.334,48.666C135.016,49.704 133.916,50.289 132.878,49.972C131.84,49.655 131.255,48.554 131.572,47.516L136.245,32.232C136.3,31.989 136.401,31.753 136.553,31.537C137.175,30.648 138.403,30.431 139.292,31.054L150.535,38.926C150.633,38.992 150.726,39.067 150.812,39.152C150.98,39.314 151.113,39.501 151.21,39.703C151.311,39.911 151.373,40.131 151.396,40.353C151.445,40.809 151.335,41.284 151.052,41.689C150.911,41.89 150.739,42.057 150.548,42.187L142.482,48.047C141.604,48.685 140.373,48.49 139.735,47.612C139.097,46.734 139.292,45.503 140.17,44.865L146.054,40.59L139.258,35.832ZM121.741,40.424L127.697,44.595C128.587,45.217 128.803,46.444 128.18,47.334C127.558,48.223 126.33,48.439 125.441,47.817L117.225,42.064C116.336,41.441 116.12,40.214 116.742,39.325C116.888,39.117 117.066,38.946 117.265,38.814L125.322,32.96C126.2,32.322 127.431,32.517 128.069,33.395C128.707,34.273 128.512,35.504 127.634,36.142L121.741,40.424Z" />
            </g>
        </g>
    </g>
</svg>
